<svg width="141" height="62" viewBox="0 0 141 62" fill="none" xmlns="http://www.w3.org/2000/svg">
<g filter="url(#filter0_d_4_36)">
<path d="M11.8924 23.7113L7.33378 7.71982C7.0984 6.89409 7.95602 6.18106 8.73584 6.55413L23.8385 13.7792C24.6416 14.1634 24.5812 15.3159 23.7425 15.6131L17.5312 17.8139C17.3056 17.8938 17.1164 18.0511 16.9978 18.2574L13.7318 23.9361C13.2908 24.7029 12.1347 24.5616 11.8924 23.7113Z" fill="#039855"/>
<path d="M6.85075 7.8544C6.49768 6.61583 7.78362 5.54674 8.95335 6.10628L24.0564 13.3314C25.2607 13.9078 25.1699 15.6359 23.9119 16.0816L17.7012 18.2825C17.5885 18.3224 17.4939 18.4012 17.4346 18.5041L14.1679 24.1829C13.5065 25.3329 11.7731 25.1214 11.4093 23.8463L6.85075 7.8544Z" stroke="#039855"/>
</g>
<path d="M42 23H121C131.493 23 140 31.5066 140 42C140 52.4934 131.493 61 121 61H42C31.5066 61 23 52.4934 23 42C23 31.5066 31.5066 23 42 23Z" fill="#039855"/>
<path d="M42 23H121C131.493 23 140 31.5066 140 42C140 52.4934 131.493 61 121 61H42C31.5066 61 23 52.4934 23 42C23 31.5066 31.5066 23 42 23Z" stroke="#039855" stroke-width="2"/>
<path d="M39.2784 48V36.3636H43.4261C44.3277 36.3636 45.0758 36.5189 45.6705 36.8295C46.2689 37.1402 46.7159 37.5701 47.0114 38.1193C47.3068 38.6648 47.4545 39.2955 47.4545 40.0114C47.4545 40.7235 47.3049 41.3504 47.0057 41.892C46.7102 42.4299 46.2633 42.8485 45.6648 43.1477C45.0701 43.447 44.322 43.5966 43.4205 43.5966H40.2784V42.0852H43.2614C43.8295 42.0852 44.2917 42.0038 44.6477 41.8409C45.0076 41.678 45.2708 41.4413 45.4375 41.1307C45.6042 40.8201 45.6875 40.447 45.6875 40.0114C45.6875 39.572 45.6023 39.1913 45.4318 38.8693C45.2652 38.5473 45.0019 38.3011 44.642 38.1307C44.286 37.9564 43.8182 37.8693 43.2386 37.8693H41.0341V48H39.2784ZM45.0227 42.75L47.8977 48H45.8977L43.0795 42.75H45.0227ZM53.0213 48.1761C52.2031 48.1761 51.4891 47.9886 50.8793 47.6136C50.2694 47.2386 49.7959 46.714 49.4588 46.0398C49.1217 45.3655 48.9531 44.5777 48.9531 43.6761C48.9531 42.7708 49.1217 41.9792 49.4588 41.3011C49.7959 40.6231 50.2694 40.0966 50.8793 39.7216C51.4891 39.3466 52.2031 39.1591 53.0213 39.1591C53.8395 39.1591 54.5535 39.3466 55.1634 39.7216C55.7732 40.0966 56.2467 40.6231 56.5838 41.3011C56.9209 41.9792 57.0895 42.7708 57.0895 43.6761C57.0895 44.5777 56.9209 45.3655 56.5838 46.0398C56.2467 46.714 55.7732 47.2386 55.1634 47.6136C54.5535 47.9886 53.8395 48.1761 53.0213 48.1761ZM53.027 46.75C53.5573 46.75 53.9967 46.6098 54.3452 46.3295C54.6937 46.0492 54.9512 45.6761 55.1179 45.2102C55.2884 44.7443 55.3736 44.2311 55.3736 43.6705C55.3736 43.1136 55.2884 42.6023 55.1179 42.1364C54.9512 41.6667 54.6937 41.2898 54.3452 41.0057C53.9967 40.7216 53.5573 40.5795 53.027 40.5795C52.4929 40.5795 52.0497 40.7216 51.6974 41.0057C51.349 41.2898 51.0895 41.6667 50.919 42.1364C50.7524 42.6023 50.669 43.1136 50.669 43.6705C50.669 44.2311 50.7524 44.7443 50.919 45.2102C51.0895 45.6761 51.349 46.0492 51.6974 46.3295C52.0497 46.6098 52.4929 46.75 53.027 46.75ZM59.1222 48V36.3636H60.821V40.6875H60.9233C61.0218 40.5057 61.1638 40.2955 61.3494 40.0568C61.535 39.8182 61.7926 39.6098 62.1222 39.4318C62.4517 39.25 62.8873 39.1591 63.429 39.1591C64.1335 39.1591 64.7623 39.3371 65.3153 39.6932C65.8684 40.0492 66.3021 40.5625 66.6165 41.233C66.9347 41.9034 67.0938 42.7102 67.0938 43.6534C67.0938 44.5966 66.9366 45.4053 66.6222 46.0795C66.3078 46.75 65.8759 47.267 65.3267 47.6307C64.7775 47.9905 64.1506 48.1705 63.446 48.1705C62.9157 48.1705 62.482 48.0814 62.1449 47.9034C61.8116 47.7254 61.5502 47.517 61.3608 47.2784C61.1714 47.0398 61.0256 46.8277 60.9233 46.642H60.7812V48H59.1222ZM60.7869 43.6364C60.7869 44.25 60.8759 44.7879 61.054 45.25C61.232 45.7121 61.4896 46.0739 61.8267 46.3352C62.1638 46.5928 62.5767 46.7216 63.0653 46.7216C63.5729 46.7216 63.9972 46.5871 64.3381 46.3182C64.679 46.0455 64.9366 45.6761 65.1108 45.2102C65.2888 44.7443 65.3778 44.2197 65.3778 43.6364C65.3778 43.0606 65.2907 42.5436 65.1165 42.0852C64.946 41.6269 64.6884 41.2652 64.3438 41C64.0028 40.7348 63.5767 40.6023 63.0653 40.6023C62.5729 40.6023 62.1562 40.7292 61.8153 40.983C61.4782 41.2367 61.2225 41.5909 61.0483 42.0455C60.8741 42.5 60.7869 43.0303 60.7869 43.6364ZM69.0014 48V39.2727H70.7003V48H69.0014ZM69.8594 37.9261C69.5639 37.9261 69.3101 37.8277 69.098 37.6307C68.8897 37.4299 68.7855 37.1913 68.7855 36.9148C68.7855 36.6345 68.8897 36.3958 69.098 36.1989C69.3101 35.9981 69.5639 35.8977 69.8594 35.8977C70.1548 35.8977 70.4067 35.9981 70.6151 36.1989C70.8272 36.3958 70.9332 36.6345 70.9332 36.9148C70.9332 37.1913 70.8272 37.4299 70.6151 37.6307C70.4067 37.8277 70.1548 37.9261 69.8594 37.9261ZM74.6847 42.8182V48H72.9858V39.2727H74.6165V40.6932H74.7244C74.9252 40.2311 75.2396 39.8598 75.6676 39.5795C76.0994 39.2992 76.643 39.1591 77.2983 39.1591C77.893 39.1591 78.4138 39.2841 78.8608 39.5341C79.3078 39.7803 79.6544 40.1477 79.9006 40.6364C80.1468 41.125 80.2699 41.7292 80.2699 42.4489V48H78.571V42.6534C78.571 42.0208 78.4063 41.5265 78.0767 41.1705C77.7472 40.8106 77.2945 40.6307 76.7188 40.6307C76.3248 40.6307 75.9744 40.7159 75.6676 40.8864C75.3646 41.0568 75.1241 41.3068 74.946 41.6364C74.7718 41.9621 74.6847 42.3561 74.6847 42.8182ZM88.4815 42.8182V48H86.7827V36.3636H88.4588V40.6932H88.5668C88.7713 40.2235 89.0838 39.8504 89.5043 39.5739C89.9247 39.2973 90.474 39.1591 91.152 39.1591C91.7505 39.1591 92.2732 39.2822 92.7202 39.5284C93.1709 39.7746 93.5194 40.142 93.7656 40.6307C94.0156 41.1155 94.1406 41.7216 94.1406 42.4489V48H92.4418V42.6534C92.4418 42.0133 92.277 41.517 91.9474 41.1648C91.6179 40.8087 91.1596 40.6307 90.5724 40.6307C90.1709 40.6307 89.8111 40.7159 89.4929 40.8864C89.1785 41.0568 88.9304 41.3068 88.7486 41.6364C88.5705 41.9621 88.4815 42.3561 88.4815 42.8182ZM100.084 48.1761C99.2656 48.1761 98.5516 47.9886 97.9418 47.6136C97.3319 47.2386 96.8584 46.714 96.5213 46.0398C96.1842 45.3655 96.0156 44.5777 96.0156 43.6761C96.0156 42.7708 96.1842 41.9792 96.5213 41.3011C96.8584 40.6231 97.3319 40.0966 97.9418 39.7216C98.5516 39.3466 99.2656 39.1591 100.084 39.1591C100.902 39.1591 101.616 39.3466 102.226 39.7216C102.836 40.0966 103.309 40.6231 103.646 41.3011C103.983 41.9792 104.152 42.7708 104.152 43.6761C104.152 44.5777 103.983 45.3655 103.646 46.0398C103.309 46.714 102.836 47.2386 102.226 47.6136C101.616 47.9886 100.902 48.1761 100.084 48.1761ZM100.089 46.75C100.62 46.75 101.059 46.6098 101.408 46.3295C101.756 46.0492 102.014 45.6761 102.18 45.2102C102.351 44.7443 102.436 44.2311 102.436 43.6705C102.436 43.1136 102.351 42.6023 102.18 42.1364C102.014 41.6667 101.756 41.2898 101.408 41.0057C101.059 40.7216 100.62 40.5795 100.089 40.5795C99.5554 40.5795 99.1122 40.7216 98.7599 41.0057C98.4115 41.2898 98.152 41.6667 97.9815 42.1364C97.8149 42.6023 97.7315 43.1136 97.7315 43.6705C97.7315 44.2311 97.8149 44.7443 97.9815 45.2102C98.152 45.6761 98.4115 46.0492 98.7599 46.3295C99.1122 46.6098 99.5554 46.75 100.089 46.75ZM109.724 48.1761C108.906 48.1761 108.192 47.9886 107.582 47.6136C106.973 47.2386 106.499 46.714 106.162 46.0398C105.825 45.3655 105.656 44.5777 105.656 43.6761C105.656 42.7708 105.825 41.9792 106.162 41.3011C106.499 40.6231 106.973 40.0966 107.582 39.7216C108.192 39.3466 108.906 39.1591 109.724 39.1591C110.543 39.1591 111.257 39.3466 111.866 39.7216C112.476 40.0966 112.95 40.6231 113.287 41.3011C113.624 41.9792 113.793 42.7708 113.793 43.6761C113.793 44.5777 113.624 45.3655 113.287 46.0398C112.95 46.714 112.476 47.2386 111.866 47.6136C111.257 47.9886 110.543 48.1761 109.724 48.1761ZM109.73 46.75C110.26 46.75 110.7 46.6098 111.048 46.3295C111.397 46.0492 111.654 45.6761 111.821 45.2102C111.991 44.7443 112.077 44.2311 112.077 43.6705C112.077 43.1136 111.991 42.6023 111.821 42.1364C111.654 41.6667 111.397 41.2898 111.048 41.0057C110.7 40.7216 110.26 40.5795 109.73 40.5795C109.196 40.5795 108.753 40.7216 108.401 41.0057C108.052 41.2898 107.793 41.6667 107.622 42.1364C107.455 42.6023 107.372 43.1136 107.372 43.6705C107.372 44.2311 107.455 44.7443 107.622 45.2102C107.793 45.6761 108.052 46.0492 108.401 46.3295C108.753 46.6098 109.196 46.75 109.73 46.75ZM118.956 48.1705C118.251 48.1705 117.623 47.9905 117.07 47.6307C116.52 47.267 116.089 46.75 115.774 46.0795C115.464 45.4053 115.308 44.5966 115.308 43.6534C115.308 42.7102 115.465 41.9034 115.78 41.233C116.098 40.5625 116.534 40.0492 117.087 39.6932C117.64 39.3371 118.267 39.1591 118.967 39.1591C119.509 39.1591 119.945 39.25 120.274 39.4318C120.607 39.6098 120.865 39.8182 121.047 40.0568C121.232 40.2955 121.376 40.5057 121.479 40.6875H121.581V36.3636H123.28V48H121.621V46.642H121.479C121.376 46.8277 121.229 47.0398 121.036 47.2784C120.846 47.517 120.585 47.7254 120.251 47.9034C119.918 48.0814 119.486 48.1705 118.956 48.1705ZM119.331 46.7216C119.82 46.7216 120.232 46.5928 120.57 46.3352C120.911 46.0739 121.168 45.7121 121.342 45.25C121.52 44.7879 121.609 44.25 121.609 43.6364C121.609 43.0303 121.522 42.5 121.348 42.0455C121.174 41.5909 120.918 41.2367 120.581 40.983C120.244 40.7292 119.827 40.6023 119.331 40.6023C118.82 40.6023 118.393 40.7348 118.053 41C117.712 41.2652 117.454 41.6269 117.28 42.0852C117.109 42.5436 117.024 43.0606 117.024 43.6364C117.024 44.2197 117.111 44.7443 117.286 45.2102C117.46 45.6761 117.717 46.0455 118.058 46.3182C118.403 46.5871 118.827 46.7216 119.331 46.7216Z" fill="white"/>
<defs>
<filter id="filter0_d_4_36" x="4.28796" y="4.45428" width="23.1241" height="23.9793" filterUnits="userSpaceOnUse" color-interpolation-filters="sRGB">
<feFlood flood-opacity="0" result="BackgroundImageFix"/>
<feColorMatrix in="SourceAlpha" type="matrix" values="0 0 0 0 0 0 0 0 0 0 0 0 0 0 0 0 0 0 127 0" result="hardAlpha"/>
<feOffset dy="1"/>
<feGaussianBlur stdDeviation="1"/>
<feComposite in2="hardAlpha" operator="out"/>
<feColorMatrix type="matrix" values="0 0 0 0 0 0 0 0 0 0 0 0 0 0 0 0 0 0 0.08 0"/>
<feBlend mode="normal" in2="BackgroundImageFix" result="effect1_dropShadow_4_36"/>
<feBlend mode="normal" in="SourceGraphic" in2="effect1_dropShadow_4_36" result="shape"/>
</filter>
</defs>
</svg>
